<?xml version="1.0" encoding="UTF-8"?>
<svg width="161px" height="168px" viewBox="0 0 161 168" version="1.1" xmlns="http://www.w3.org/2000/svg" xmlns:xlink="http://www.w3.org/1999/xlink">
    <title>iscellaneous_icons_3</title>
    <g id="Page-1" stroke="none" stroke-width="1" fill="none" fill-rule="evenodd">
        <g id="iPhone-14---On-Boarding-2" transform="translate(-115.000000, -235.000000)" fill-rule="nonzero">
            <g id="iscellaneous_icons_3" transform="translate(115.000000, 235.000000)">
                <ellipse id="Oval" fill="#FBD947" cx="80.5" cy="86.5" rx="78.5" ry="79.5"></ellipse>
                <path d="M79,7 C78.5332752,35.6840491 70.0498657,99.0153374 6.13602331,115 C2.72028037,105.98117 0.980113109,96.4083926 1.00205057,86.7576687 C0.974618454,83.2099195 1.22245992,79.6654243 1.74331936,76.1564417 C6.15157614,42.6980112 31.0391917,15.6590155 63.8726258,8.65644172 C68.8491488,7.60859527 73.9158316,7.05379543 79,7 Z" id="Path" fill="#FBE481"></path>
                <path d="M157,85.6599833 C157.059923,129.39615 122.085683,164.908969 78.863302,165 L78.863302,165 C69.3367838,165.018441 59.8894039,163.249856 51,159.783739 C116.222374,135.377806 131.279952,77.9456221 127.997129,24 C146.36171,39.0740638 157.019233,61.731973 157,85.6599833 Z" id="Path" fill="#F8A547" opacity="0.5"></path>
                <path d="M30.8178042,70.999578 L30.5190187,70.999578 C30.3169179,70.9210753 30.1545526,70.7654901 30.067882,70.5672802 C29.9812114,70.3690703 29.9773882,70.1445935 30.0572592,69.9435649 L30.0572592,69.9435649 L34.4847181,59.4917426 C34.5572844,59.2990133 34.7053483,59.1439851 34.8948901,59.0622778 C35.0844319,58.9805704 35.2991551,58.9792091 35.4897241,59.0585064 L35.4897241,59.0585064 C35.8961529,59.2219069 36.1001556,59.676485 35.9514836,60.0874423 L35.9514836,60.0874423 L31.5240247,70.5392646 C31.4096006,70.8258538 31.1270507,71.0100194 30.8178042,70.999578 L30.8178042,70.999578 Z" id="Path" fill="#3E3126"></path>
                <path d="M36.8228222,66 L36.5222033,66 C36.3188624,65.9229846 36.1555009,65.7703475 36.0682985,65.5758932 C35.9810961,65.3814388 35.9772494,65.1612153 36.0576105,64.9639957 L36.0576105,64.9639957 L38.4352325,59.4652035 C38.6389956,59.092682 39.0868528,58.9140874 39.5010631,59.0401761 C39.9139246,59.2110163 40.1087957,59.6727223 39.9383269,60.0761804 L39.9383269,60.0761804 L37.5607049,65.4952799 C37.4468847,65.7964721 37.1529191,65.9975478 36.8228222,66 Z" id="Path" fill="#3E3126"></path>
                <path d="M80.2996639,165.999422 C36.6696342,166.165064 1.16654426,130.707205 1.00057581,86.8013582 C0.83576708,42.8955117 36.0707087,7.16781061 79.7007369,7.00058091 C123.330765,6.83452122 158.834193,42.2920375 159,86.1978823 L159,86.4994318 C159,130.288249 123.813086,165.832744 80.2996639,165.999422 L80.2996639,165.999422 Z M80.2996639,13.4692955 C40.1749229,13.3486922 7.54993579,45.9837478 7.42930317,86.3621465 C7.30933778,126.740545 39.7392814,159.571877 79.8640218,159.693394 C119.988762,159.814238 152.613944,127.179379 152.734489,86.8009812 L152.734489,86.5816725 C152.749643,46.2822685 120.345771,13.5754401 80.2996639,13.4692955 Z" id="Shape" fill="#F8A547"></path>
                <path d="M1.64624361,89 C0.737048368,89 0,88.2667839 0,87.362316 L0,87.362316 C-5.77785264e-05,81.7288895 0.570494317,76.1097928 1.70301063,70.5901729 C1.70846625,70.1372044 1.9055601,69.7074961 2.24590687,69.4065387 C2.58625363,69.1055812 3.03833645,68.9612439 3.49117179,69.0089607 C4.39434039,69.0983922 5.06149531,69.8873021 4.99549784,70.7878244 L4.99549784,71.1266556 C3.90997173,76.4331849 3.35850134,81.8340871 3.34925423,87.2493723 C3.36466782,87.6784323 3.20403509,88.0952823 2.90426346,88.4041457 C2.60449183,88.7130092 2.19135544,88.8873302 1.75977765,88.8870563 L1.64624361,89 Z" id="Path" fill="#3E3126"></path>
                <path d="M79.9999437,168 C40.8802569,168.128903 7.43761708,139.565641 1.02910613,100.550799 C0.949579967,100.145166 1.0345764,99.7242375 1.26500197,99.3825719 C1.49542755,99.0409063 1.85196258,98.8071496 2.25451568,98.7338124 L2.41790362,98.7338124 C3.25088828,98.5823317 4.05036022,99.133407 4.21517095,99.9726672 L4.21517095,99.9726672 C10.793504,138.208405 44.1959963,165.724964 82.5660025,164.51711 C120.936009,163.309257 152.580441,133.745079 156.793026,95.1696521 C161.005611,56.5942256 136.502583,20.7632395 99.3172949,11.1224041 C62.1320073,1.48156856 23.5965109,20.9688852 8.92618988,56.832989 C8.546352,57.5517301 7.69210443,57.8659927 6.94419067,57.5621314 C6.19627691,57.2582701 5.79468886,56.4337886 6.01243829,55.6491944 L6.01243829,55.6491944 C21.5525458,18.2339042 62.082089,-1.77993961 100.825377,8.82973379 C139.568666,19.4394072 164.565609,57.3973817 159.302072,97.6268638 C154.038534,137.856346 120.139373,167.938457 79.9999437,168 Z" id="Path" fill="#3E3126"></path>
                <circle id="Oval" fill="#3E3126" cx="1.5" cy="93.5" r="1.5"></circle>
                <path d="M80.1641764,151.999785 C44.8181253,152.090829 16.0910598,123.287456 16.0002139,87.6653839 C15.909798,52.0433115 44.4899217,23.0918497 79.8359724,23.000216 C115.182023,22.9090162 143.909214,51.712262 144,87.334334 L144,87.4997887 C144,123.057519 115.446268,151.908356 80.1641764,151.999785 Z M80.1641764,29.3419026 C48.2940669,29.2056684 22.3481674,55.1322719 22.2117248,87.2512581 C22.0763542,119.370244 47.8019051,145.518916 79.6720131,145.65662 C111.542121,145.793241 137.488333,119.866955 137.624626,87.7479708 L137.624626,87.4997887 C137.624626,55.4770447 111.938499,29.479096 80.1641764,29.3419026 Z" id="Shape" fill="#F8A547"></path>
                <path d="M35.9233757,133 C35.5992082,132.99415 35.2887725,132.866595 35.0524143,132.642131 C22.8342873,120.530735 15.9649227,103.94532 16,86.642249 C16.0486129,59.7589255 32.4628539,35.6826519 57.2891464,26.0798664 C57.9427829,25.8366927 58.6686523,26.1670641 58.9221989,26.823132 C59.1607709,27.4768093 58.8323732,28.2026138 58.1873253,28.447305 L58.1873253,28.447305 C34.3802158,37.6931683 18.6451451,60.7941791 18.5858012,86.5871922 C18.5253195,103.193906 25.0900798,119.123296 36.794337,130.770203 C37.2823003,131.264556 37.2823003,132.065194 36.794337,132.559546 C36.55704,132.802979 36.2341337,132.941534 35.8961581,132.944943 L35.9233757,133 Z" id="Path" fill="#3E3126"></path>
                <path d="M80.4608488,151.996007 C68.9071432,152.006236 57.5733331,148.790114 47.6999864,142.699669 C47.4021,142.557321 47.1735866,142.298753 47.0664118,141.982766 C46.9592371,141.666779 46.9825103,141.32023 47.1309391,141.021928 C47.2766767,140.717689 47.5363852,140.485364 47.8520626,140.376837 C48.1677401,140.26831 48.5130899,140.292622 48.8109833,140.444345 L49.0006658,140.444345 C71.1049384,154.035306 99.2455586,152.027175 119.258838,135.43068 C139.272118,118.834185 146.821703,91.2453532 138.107749,66.5501468 C129.393795,41.8549404 106.304388,25.4041653 80.4608488,25.4777969 C77.1952836,25.4996514 73.9353758,25.7570031 70.7057533,26.2479078 C70.393162,26.3506422 70.0529521,26.3209877 69.7621948,26.165662 C69.4714376,26.0103364 69.2547413,25.7424857 69.1611965,25.422789 C69.0592695,25.1018465 69.0877866,24.7528835 69.2404168,24.4533721 C69.393047,24.1538607 69.65716,23.9285856 69.9741211,23.8275594 L70.2992909,23.8275594 C104.835068,18.1930103 137.371249,41.924229 143.124193,76.9445381 C148.877136,111.964847 125.68711,145.127158 91.2185513,151.170889 C87.6628883,151.76102 84.0635059,152.037094 80.4608488,151.996007 Z" id="Path" fill="#3E3126"></path>
                <circle id="Oval" fill="#3E3126" cx="64.5" cy="24.5" r="1.5"></circle>
                <circle id="Oval" fill="#3E3126" cx="41.5" cy="136.5" r="1.5"></circle>
                <path d="M80.1641764,151.999785 C44.8181253,152.090829 16.0910598,123.287456 16.0002139,87.6653839 C15.909798,52.0433115 44.4899217,23.0918497 79.8359724,23.000216 C115.182023,22.9090162 143.909214,51.712262 144,87.334334 L144,87.4997887 C144,123.057519 115.446268,151.908356 80.1641764,151.999785 Z M80.1641764,29.3419026 C48.2940669,29.2056684 22.3481674,55.1322719 22.2117248,87.2512581 C22.0763542,119.370244 47.8019051,145.518916 79.6720131,145.65662 C111.542121,145.793241 137.488333,119.866955 137.624626,87.7479708 L137.624626,87.4997887 C137.624626,55.4770447 111.938499,29.479096 80.1641764,29.3419026 Z" id="Shape" fill="#F8A547"></path>
                <path d="M35.9233757,133 C35.5992082,132.99415 35.2887725,132.866595 35.0524143,132.642131 C22.8342873,120.530735 15.9649227,103.94532 16,86.642249 C16.0486129,59.7589255 32.4628539,35.6826519 57.2891464,26.0798664 C57.9427829,25.8366927 58.6686523,26.1670641 58.9221989,26.823132 C59.1607709,27.4768093 58.8323732,28.2026138 58.1873253,28.447305 L58.1873253,28.447305 C34.3802158,37.6931683 18.6451451,60.7941791 18.5858012,86.5871922 C18.5253195,103.193906 25.0900798,119.123296 36.794337,130.770203 C37.2823003,131.264556 37.2823003,132.065194 36.794337,132.559546 C36.55704,132.802979 36.2341337,132.941534 35.8961581,132.944943 L35.9233757,133 Z" id="Path" fill="#3E3126"></path>
                <path d="M80.4608488,151.996007 C68.9071432,152.006236 57.5733331,148.790114 47.6999864,142.699669 C47.4021,142.557321 47.1735866,142.298753 47.0664118,141.982766 C46.9592371,141.666779 46.9825103,141.32023 47.1309391,141.021928 C47.2766767,140.717689 47.5363852,140.485364 47.8520626,140.376837 C48.1677401,140.26831 48.5130899,140.292622 48.8109833,140.444345 L49.0006658,140.444345 C71.1049384,154.035306 99.2455586,152.027175 119.258838,135.43068 C139.272118,118.834185 146.821703,91.2453532 138.107749,66.5501468 C129.393795,41.8549404 106.304388,25.4041653 80.4608488,25.4777969 C77.1952836,25.4996514 73.9353758,25.7570031 70.7057533,26.2479078 C70.393162,26.3506422 70.0529521,26.3209877 69.7621948,26.165662 C69.4714376,26.0103364 69.2547413,25.7424857 69.1611965,25.422789 C69.0592695,25.1018465 69.0877866,24.7528835 69.2404168,24.4533721 C69.393047,24.1538607 69.65716,23.9285856 69.9741211,23.8275594 L70.2992909,23.8275594 C104.835068,18.1930103 137.371249,41.924229 143.124193,76.9445381 C148.877136,111.964847 125.68711,145.127158 91.2185513,151.170889 C87.6628883,151.76102 84.0635059,152.037094 80.4608488,151.996007 Z" id="Path" fill="#3E3126"></path>
                <circle id="Oval" fill="#3E3126" cx="64.5" cy="24.5" r="1.5"></circle>
                <circle id="Oval" fill="#3E3126" cx="41.5" cy="136.5" r="1.5"></circle>
                <circle id="Oval" fill="#3E3126" cx="5.5" cy="62.5" r="1.5"></circle>
                <ellipse id="Oval" fill="#FFFFFF" transform="translate(42.852383, 29.023822) rotate(-40.250000) translate(-42.852383, -29.023822) " cx="42.8523832" cy="29.0238215" rx="3.14638039" ry="1.91883624"></ellipse>
                <path d="M22.6574114,50 C22.3647877,50.002399 22.0782372,49.9177158 21.8353061,49.7569946 C21.4699985,49.5727735 21.1948162,49.2520892 21.071234,48.8665816 C20.9476519,48.481074 20.9859677,48.0628666 21.1776219,47.7053857 L21.1776219,47.7053857 C25.1071313,41.8930324 29.922763,36.7121634 35.4548499,32.345314 C36.1214713,31.810892 37.1011377,31.9073977 37.6471306,32.5612729 L37.6471306,32.5612729 C38.1926466,33.2267606 38.095034,34.2003499 37.4279025,34.747856 C32.1535633,38.9018742 27.5357857,43.8056044 23.7261482,49.2980821 C23.4885507,49.6721786 23.0993424,49.9277814 22.6574114,50 Z" id="Path" fill="#FFFFFF"></path>
                <circle id="Oval" fill="#F8A547" opacity="0.4" cx="103.5" cy="121.5" r="1.5"></circle>
                <circle id="Oval" fill="#F8A547" cx="104.5" cy="137.5" r="4.5"></circle>
                <circle id="Oval" fill="#F8A547" cx="107.5" cy="126.5" r="1.5"></circle>
                <circle id="Oval" fill="#F8A547" cx="92.5" cy="139.5" r="1.5"></circle>
                <circle id="Oval" fill="#F8A547" cx="116" cy="132" r="2"></circle>
                <circle id="Oval" fill="#F8A547" opacity="0.4" cx="94.5" cy="133.5" r="1.5"></circle>
                <circle id="Oval" fill="#F8A547" opacity="0.4" cx="98.5" cy="129.5" r="1.5"></circle>
                <circle id="Oval" fill="#F8A547" opacity="0.4" cx="98.5" cy="123.5" r="1"></circle>
                <circle id="Oval" fill="#F8A547" cx="100" cy="157" r="3"></circle>
                <circle id="Oval" fill="#F8A547" cx="102" cy="152" r="1"></circle>
                <circle id="Oval" fill="#F8A547" cx="94" cy="160" r="1"></circle>
                <circle id="Oval" fill="#F8A547" cx="107.5" cy="155.5" r="1.5"></circle>
                <circle id="Oval" fill="#F8A547" opacity="0.4" cx="95" cy="157" r="1"></circle>
                <circle id="Oval" fill="#F8A547" opacity="0.4" cx="97" cy="154" r="1"></circle>
                <circle id="Oval" fill="#F8A547" opacity="0.4" cx="96.5" cy="150.5" r="1"></circle>
                <circle id="Oval" fill="#F8A547" cx="83.5" cy="144.5" r="1.5"></circle>
                <ellipse id="Oval" fill="#FFEFAE" transform="translate(47.652632, 47.689915) rotate(-55.200000) translate(-47.652632, -47.689915) " cx="47.652632" cy="47.6899155" rx="9.08243053" ry="6.12239347"></ellipse>
                <path d="M99.9111238,93.9493844 C99.0504482,92.018243 97.8250661,90.2716933 96.3023382,88.8057456 C94.8128174,87.4118286 93.1495798,86.2163425 91.3539277,85.248974 C89.6535875,84.3159618 87.8905132,83.5023284 86.0774457,82.8139535 C83.6442493,81.9110807 81.4024279,80.9808482 79.2699637,80.0779754 C77.3505564,79.3304174 75.595377,78.2151824 74.1028388,76.7948016 C72.8108713,75.5642086 72.0963569,73.8461022 72.1344103,72.0615595 C72.1043258,70.7199897 72.4147353,69.3927003 73.0366067,68.2038304 C73.6657137,67.1151134 74.6226056,66.2532651 75.7705352,65.7414501 C77.3476576,65.1337715 79.0296405,64.8454811 80.7189458,64.8932969 C82.4910367,64.847571 84.2413156,65.2925698 85.7767135,66.1792066 C87.2273921,67.075481 88.4977338,68.2354209 89.5221956,69.5991792 C90.6058186,71.0633991 91.574694,72.6092736 92.4201598,74.2229822 L100.403231,69.3255814 C99.3657733,67.0866972 97.9920172,65.0199049 96.3296775,63.1969904 C94.4915876,61.1678781 92.271049,59.5221459 89.7955884,58.3543092 C88.1554737,57.592816 86.4158037,57.0677602 84.6284636,56.7948016 L84.6284636,47 L76.4266781,47 L76.6727316,56.6032832 C74.5608314,56.8769451 72.5041473,57.4768764 70.5760711,58.3816689 C67.9024426,59.6104391 65.5803567,61.4920802 63.8232677,63.8536252 C62.2049212,66.08821 61.3427803,68.7820236 61.362732,71.5417237 C61.2841936,74.0758207 61.8188174,76.5913749 62.9210713,78.874145 C63.8983441,80.8212666 65.2339987,82.5663452 66.8579283,84.0177839 C68.3881284,85.4062208 70.1099007,86.5672152 71.9703746,87.4651163 C73.5764398,88.2856165 75.239298,88.9896609 76.9461245,89.5718194 C79.2152851,90.4473324 81.4024279,91.377565 83.425535,92.3077975 C85.2999657,93.1832779 86.9962443,94.3984642 88.4286242,95.8919289 C89.7358087,97.4076511 90.4197404,99.3632067 90.3423741,101.363885 C90.3886132,102.900318 90.0502839,104.423941 89.3581598,105.79617 C88.6909989,107.020114 87.6317271,107.98381 86.3508385,108.532148 C84.7355929,109.216429 82.9915939,109.543091 81.2383922,109.48974 C79.0686529,109.537803 76.9227431,109.02918 75.0050352,108.012312 C73.0827393,106.952817 71.3984498,105.509389 70.0566247,103.771546 C68.3409822,101.717786 66.8897661,99.4566039 65.7370176,97.0410397 L58,102.157319 C59.2267768,105.194959 61.0066783,107.97814 63.2491427,110.365253 C65.4913193,112.785633 68.1968286,114.730221 71.2048746,116.083447 C72.9426264,116.899203 74.7815222,117.47889 76.6727316,117.807114 L76.5086959,127 L84.7104814,127 L84.5464457,117.998632 C87.0694025,117.772443 89.5367096,117.125099 91.8460348,116.083447 C94.6358439,114.775301 96.9691847,112.659423 98.5441596,110.009576 C100.202305,107.214942 101.045204,104.011422 100.977356,100.76197 C101.098102,98.4416719 100.734992,96.1216199 99.9111238,93.9493844 Z" id="Path" fill="#FFFFFF"></path>
                <ellipse id="Oval" fill="#FBD947" cx="126" cy="35" rx="34" ry="35"></ellipse>
                <path d="M126,0 C125.780645,12.4727592 122.106452,40.0339777 94.2483871,47 C92.7619776,43.0778802 92,38.9165109 92,34.7199766 C92.0367604,33.169591 92.1833674,31.6237989 92.4387097,30.0943175 C94.5959875,13.067075 108.908361,0.233208873 126,0 Z" id="Path" fill="#FBE481"></path>
                <path d="M160,35.0972274 C160.029654,54.2997296 144.876364,69.9082963 126.115131,70 C121.97204,70.0148752 117.862831,69.2356728 114,67.7024715 C142.394838,56.963223 148.939172,31.7204534 147.505909,8 C155.455004,14.6377394 160.046999,24.5971615 160,35.0972274 L160,35.0972274 Z" id="Path" fill="#F8A547" opacity="0.5"></path>
                <path d="M105.30789,27.9660129 L105.30789,27.9660129 C105.216294,27.9419701 105.139496,27.8872669 105.094463,27.8139881 C105.049431,27.7407093 105.039869,27.6548855 105.06789,27.5754765 L105.06789,27.5754765 L105.06789,27.5754765 L107.19789,23.2014693 C107.291673,23.0387867 107.509305,22.961015 107.70789,23.019219 C107.803368,23.0537446 107.879132,23.1197726 107.918515,23.2027777 C107.957897,23.2857827 107.957673,23.3789655 107.91789,23.4618269 L107.91789,23.4618269 L105.78789,27.8358341 C105.69512,27.985096 105.482083,28.0428728 105.30789,27.9660129 Z" id="Path" fill="#3E3126"></path>
                <path d="M106.992958,26 L106.812958,26 C106.625505,25.9181856 106.535892,25.7283273 106.602958,25.5550857 L106.602958,25.5550857 L107.742958,23.199657 C107.812948,23.0436666 108.010957,22.9630546 108.192958,23.016457 L108.192958,23.016457 C108.371144,23.1055745 108.457549,23.2886366 108.402958,23.4613713 L107.262958,25.8168 C107.214084,25.9136489 107.11259,25.9825151 106.992958,26 L106.992958,26 Z" id="Path" fill="#3E3126"></path>
                <path d="M126.63674,69.9997273 C112.678216,70.0554281 100.061908,61.5726871 94.6742952,48.5090805 C89.2866821,35.4454739 92.1895482,20.3755623 102.028483,10.3306196 C111.867418,0.285676809 126.703375,-2.75465141 139.614239,2.62818206 C152.525104,8.01101553 160.966416,20.7561681 160.999828,34.917045 L160.999828,34.917045 C161.028656,44.1921172 157.424569,53.0989892 150.980263,59.6782269 C144.535956,66.2574645 135.779321,69.9701238 126.63674,69.9997273 Z M126.63674,2.79709947 C113.78216,2.74142409 102.161095,10.5495287 97.1959407,22.5784448 C92.2307868,34.607361 94.9001333,48.4862941 103.958461,57.7393237 C113.016789,66.9923533 126.67878,69.7957878 138.56974,64.8415426 C150.4607,59.8872975 158.237024,48.1518112 158.270462,35.1108704 L158.270462,35.1108704 C158.299278,26.5701642 154.982752,18.3675794 149.050303,12.3076169 C143.117854,6.24765438 135.055445,2.82672267 126.63674,2.79709947 Z" id="Shape" fill="#F8A547"></path>
                <path d="M92.1187163,36 C91.6996932,35.9841008 91.368406,35.644451 91.3687163,35.2310679 C91.3742221,32.6588286 91.6354712,30.0933143 92.1487163,27.5713217 C92.2639973,27.1885265 92.6483957,26.9485287 93.0487163,27.0094098 C93.4373603,27.0839824 93.6919993,27.4539151 93.6187163,27.8374905 L93.6187163,27.8374905 C93.1301794,30.2628325 92.8790267,32.7288182 92.8687163,35.2014936 C92.8768276,35.4054675 92.8023324,35.60425 92.6616482,35.754033 C92.5209641,35.903816 92.3256379,35.9923055 92.1187163,36 L92.1187163,36 Z" id="Path" fill="#3E3126"></path>
                <path d="M126.281802,70.9723541 C109.311304,71.0317583 94.7996661,58.5417753 92.0089865,41.4741758 C91.9781249,41.2789527 92.0275062,41.079389 92.1455068,40.9224591 C92.2635074,40.7655292 92.4397037,40.6650956 92.6326216,40.6447987 C93.0009856,40.6078161 93.338471,40.856991 93.4189441,41.2253627 C96.3842736,57.9406898 110.958836,69.8851561 127.607056,69.2439581 C144.255277,68.6027602 157.904523,55.571268 159.624618,38.6754841 C161.344713,21.7797002 150.611554,6.1676902 134.447431,2.05378988 C118.283309,-2.06011043 101.613356,6.57758493 95.3440785,22.3155652 C95.2789172,22.4899254 95.1447619,22.6282524 94.9744943,22.6966419 C94.8042267,22.7650314 94.6135857,22.7571618 94.4492977,22.6749619 L94.4492977,22.6749619 C94.2805084,22.6134148 94.1440949,22.4836025 94.0722446,22.3161552 C94.0003944,22.1487078 93.9994715,21.9584568 94.0696938,21.790293 L94.0696938,21.790293 C100.807252,5.3875453 118.409173,-3.40079755 135.248768,1.23027556 C152.088362,5.86134866 162.968405,22.4825443 160.702245,40.1149752 C158.436084,57.7474062 143.723127,70.949155 126.281802,71 L126.281802,70.9723541 Z" id="Path" fill="#3E3126"></path>
                <circle id="Oval" fill="#3E3126" cx="92" cy="38" r="1"></circle>
                <path d="M126.580445,62.9998778 C111.396393,63.0450629 99.0498145,50.551532 99.0001485,35.0913409 C98.9507813,19.6311497 111.217068,7.05589411 126.401087,7.00018327 C141.585107,6.94484142 153.939792,19.4300607 153.999675,34.8902152 L153.999675,34.8902152 C154.035144,42.323196 151.163907,49.465037 146.019533,54.7389891 C140.87516,60.0129412 133.880729,62.9852697 126.580445,62.9998778 L126.580445,62.9998778 Z M126.580445,9.76982422 C112.89523,9.73962639 101.777074,21.0109134 101.747274,34.9450236 C101.717594,48.8791337 112.787533,60.1995152 126.472748,60.2298787 C140.157962,60.2601203 151.276153,48.9888689 151.305936,35.0547588 L151.305936,35.0547588 C151.261513,21.1741171 140.213186,9.93710649 126.580445,9.90700471 L126.580445,9.76982422 Z" id="Shape" fill="#F8A547"></path>
                <path d="M107.743646,54.9944824 C107.598195,54.9923984 107.459454,54.9325874 107.357643,54.8280769 C100.536879,48.0159607 97.6214532,38.1861231 99.6167353,28.7283354 C101.612017,19.2705476 108.24499,11.478933 117.228305,8.04039158 C117.510007,7.92613271 117.830524,8.0625355 117.945169,8.34546836 C118.070493,8.60686378 117.974327,8.92124594 117.724595,9.06655895 L117.724595,9.06655895 C109.072689,12.3568041 102.680422,19.8502413 100.76142,28.951912 C98.8424174,38.0535826 101.660562,47.5119171 108.239936,54.0515178 C108.453508,54.2765786 108.453508,54.6307502 108.239936,54.8558111 C108.099915,54.9675606 107.920906,55.0175785 107.743646,54.9944824 Z" id="Path" fill="#3E3126"></path>
                <path d="M125.784378,63.8359375 C120.661585,63.8617022 115.632985,62.4697568 111.263253,59.8164063 C111.142452,59.7477171 111.054198,59.6341073 111.018003,59.5006956 C110.981807,59.3672838 111.000653,59.2250598 111.070372,59.1054688 L111.070372,59.1054688 C111.139591,58.9855912 111.254075,58.8980114 111.388514,58.8620929 C111.522953,58.8261743 111.666273,58.8448758 111.786785,58.9140625 L111.786785,58.9140625 C124.607806,66.5931932 141.274402,62.5042936 149.012668,49.7812496 C156.750934,37.0582057 152.630547,20.5189751 139.809526,12.8398437 C135.56817,10.3313998 130.721854,9.00861153 125.784378,9.01171875 C124.345222,9.01225464 122.908212,9.12194913 121.485905,9.33984375 C121.220573,9.41287168 120.943583,9.26945989 120.852155,9.01171875 C120.800537,8.71157197 120.993979,8.42362583 121.293024,8.35546875 L121.293024,8.35546875 C122.780842,8.1409052 124.281098,8.02216722 125.784378,8 C141.367436,8 154,20.536027 154,36 C154,51.463973 141.367436,64 125.784378,64 L125.784378,63.8359375 Z" id="Path" fill="#3E3126"></path>
                <circle id="Oval" fill="#3E3126" cx="110" cy="57" r="1"></circle>
                <path d="M126.580445,62.9998778 C111.396393,63.0450629 99.0498145,50.551532 99.0001485,35.0913409 C98.9507813,19.6311497 111.217068,7.05589411 126.401087,7.00018327 C141.585107,6.94484142 153.939792,19.4300607 153.999675,34.8902152 L153.999675,34.8902152 C154.035144,42.323196 151.163907,49.465037 146.019533,54.7389891 C140.87516,60.0129412 133.880729,62.9852697 126.580445,62.9998778 L126.580445,62.9998778 Z M126.580445,9.76982422 C112.89523,9.73962639 101.777074,21.0109134 101.747274,34.9450236 C101.717594,48.8791337 112.787533,60.1995152 126.472748,60.2298787 C140.157962,60.2601203 151.276153,48.9888689 151.305936,35.0547588 L151.305936,35.0547588 C151.261513,21.1741171 140.213186,9.93710649 126.580445,9.90700471 L126.580445,9.76982422 Z" id="Shape" fill="#F8A547"></path>
                <path d="M107.743646,54.9944824 C107.598195,54.9923984 107.459454,54.9325874 107.357643,54.8280769 C100.536879,48.0159607 97.6214532,38.1861231 99.6167353,28.7283354 C101.612017,19.2705476 108.24499,11.478933 117.228305,8.04039158 C117.510007,7.92613271 117.830524,8.0625355 117.945169,8.34546836 C118.070493,8.60686378 117.974327,8.92124594 117.724595,9.06655895 L117.724595,9.06655895 C109.072689,12.3568041 102.680422,19.8502413 100.76142,28.951912 C98.8424174,38.0535826 101.660562,47.5119171 108.239936,54.0515178 C108.453508,54.2765786 108.453508,54.6307502 108.239936,54.8558111 C108.099915,54.9675606 107.920906,55.0175785 107.743646,54.9944824 Z" id="Path" fill="#3E3126"></path>
                <path d="M125.784378,63.8359375 C120.661585,63.8617022 115.632985,62.4697568 111.263253,59.8164063 C111.142452,59.7477171 111.054198,59.6341073 111.018003,59.5006956 C110.981807,59.3672838 111.000653,59.2250598 111.070372,59.1054688 L111.070372,59.1054688 C111.139591,58.9855912 111.254075,58.8980114 111.388514,58.8620929 C111.522953,58.8261743 111.666273,58.8448758 111.786785,58.9140625 L111.786785,58.9140625 C124.607806,66.5931932 141.274402,62.5042936 149.012668,49.7812496 C156.750934,37.0582057 152.630547,20.5189751 139.809526,12.8398437 C135.56817,10.3313998 130.721854,9.00861153 125.784378,9.01171875 C124.345222,9.01225464 122.908212,9.12194913 121.485905,9.33984375 C121.220573,9.41287168 120.943583,9.26945989 120.852155,9.01171875 C120.800537,8.71157197 120.993979,8.42362583 121.293024,8.35546875 L121.293024,8.35546875 C122.780842,8.1409052 124.281098,8.02216722 125.784378,8 C141.367436,8 154,20.536027 154,36 C154,51.463973 141.367436,64 125.784378,64 L125.784378,63.8359375 Z" id="Path" fill="#3E3126"></path>
                <circle id="Oval" fill="#3E3126" cx="110" cy="57" r="1"></circle>
                <circle id="Oval" fill="#3E3126" cx="94" cy="25" r="1"></circle>
                <path d="M100.798881,18.9587755 C100.669965,19.0137415 100.522225,19.0137415 100.393308,18.9587755 C100.214091,18.8667894 100.082084,18.7101371 100.027481,18.5246499 C99.9728775,18.3391627 100.00035,18.1407085 100.103613,17.9746799 C101.955683,15.4153515 104.201302,13.1305219 106.766597,11.1953547 C107.048212,10.9348818 107.498914,10.9348818 107.780529,11.1953547 C107.920564,11.319369 108,11.4925162 108,11.6737345 C108,11.8549529 107.920564,12.0281 107.780529,12.1521143 C105.374829,13.99497 103.266838,16.1590666 101.523119,18.5760717 C101.397743,18.8405455 101.103364,18.9961023 100.798881,18.9587755 L100.798881,18.9587755 Z" id="Path" fill="#FFFFFF"></path>
                <circle id="Oval" fill="#F8A547" opacity="0.4" cx="136.5" cy="50.5" r="1"></circle>
                <circle id="Oval" fill="#F8A547" cx="137" cy="57" r="2"></circle>
                <circle id="Oval" fill="#F8A547" cx="138" cy="53" r="1"></circle>
                <circle id="Oval" fill="#F8A547" cx="132" cy="59" r="1"></circle>
                <circle id="Oval" fill="#F8A547" cx="142" cy="55" r="1"></circle>
                <circle id="Oval" fill="#F8A547" opacity="0.4" cx="132.5" cy="55.5" r="1"></circle>
                <circle id="Oval" fill="#F8A547" opacity="0.4" cx="134.5" cy="53.5" r="1"></circle>
                <circle id="Oval" fill="#F8A547" opacity="0.4" cx="134.5" cy="51.5" r="1"></circle>
                <circle id="Oval" fill="#F8A547" cx="135.5" cy="65.5" r="1.5"></circle>
                <circle id="Oval" fill="#F8A547" cx="135.5" cy="64.5" r="1"></circle>
                <circle id="Oval" fill="#F8A547" cx="132.5" cy="67.5" r="1"></circle>
                <circle id="Oval" fill="#F8A547" cx="138.5" cy="65.5" r="1"></circle>
                <circle id="Oval" fill="#F8A547" opacity="0.4" cx="132.5" cy="65.5" r="1"></circle>
                <circle id="Oval" fill="#F8A547" opacity="0.4" cx="134.5" cy="64.5" r="1"></circle>
                <circle id="Oval" fill="#F8A547" opacity="0.4" cx="134" cy="63" r="1"></circle>
                <circle id="Oval" fill="#F8A547" cx="128" cy="60" r="1"></circle>
                <ellipse id="Oval" fill="#FFEFAE" transform="translate(112.685586, 18.801331) rotate(-55.090000) translate(-112.685586, -18.801331) " cx="112.685586" cy="18.8013308" rx="3.9786274" ry="2.67860224"></ellipse>
                <path d="M135.475865,37.5191257 C135.079595,36.6861089 134.540814,35.9280068 133.883591,35.2786885 C133.225919,34.6750185 132.497776,34.1521484 131.714805,33.7213115 C130.966814,33.3313963 130.196852,32.984737 129.408753,32.6830601 C128.338087,32.273224 127.349779,31.863388 126.416377,31.4535519 C125.581177,31.1284419 124.816832,30.6460409 124.165231,30.0327869 C123.578579,29.492267 123.257811,28.724089 123.286736,27.9289617 C123.272869,27.3468707 123.415004,26.7716043 123.698531,26.2622951 C123.976908,25.7778822 124.412562,25.4021116 124.933915,25.1967213 C125.622166,24.9202077 126.36089,24.7899173 127.102702,24.8142077 C127.877226,24.8163427 128.639885,25.0037577 129.326394,25.3606557 C129.962681,25.75774 130.520873,26.2669815 130.973574,26.863388 C131.43983,27.5082406 131.861739,28.1837341 132.236412,28.8852459 L135.722942,26.863388 C135.275534,25.8652734 134.673381,24.9432915 133.938497,24.1311475 C133.154626,23.2748738 132.225327,22.5627173 131.193198,22.0273224 C130.466923,21.7015069 129.700863,21.4718633 128.914599,21.3442623 L128.914599,17 L125.373163,17 L125.373163,21.1803279 C124.423317,21.3059333 123.497861,21.5730388 122.627864,21.9726776 C121.452438,22.5137406 120.432796,23.3406087 119.66294,24.3770492 C118.958828,25.3568371 118.584072,26.5331357 118.592274,27.7377049 C118.558662,28.8398133 118.784284,29.9344907 119.251146,30.9344262 C119.684133,31.7728981 120.270709,32.5234799 120.980684,33.147541 C121.661367,33.7523748 122.418074,34.2666919 123.23183,34.6775956 C123.932263,35.029157 124.657037,35.3304703 125.400616,35.579235 C126.337904,35.9277733 127.254488,36.3291517 128.145916,36.7814208 C128.954726,37.1704358 129.688762,37.6975374 130.314702,38.3387978 C130.887542,39.0078409 131.190768,39.8645174 131.165745,40.7431694 C131.183606,41.4130256 131.042524,42.0776358 130.75395,42.6830601 C130.459687,43.2336818 129.985005,43.6675405 129.408753,43.9125683 C128.70708,44.2111104 127.94762,44.3510822 127.185061,44.3224044 C126.228174,44.3457168 125.281787,44.1196644 124.439761,43.6666667 C123.592549,43.2194087 122.852673,42.5949039 122.270975,41.8360656 C121.542865,40.9282424 120.925441,39.9377261 120.431624,38.8852459 L117,41.1256831 C117.564432,42.4457647 118.343551,43.6642702 119.306052,44.7322404 C120.282896,45.7681368 121.44707,46.6116235 122.737676,47.2185792 C123.500223,47.5918213 124.314485,47.8496723 125.153539,47.9836066 L125.153539,52 L128.667523,52 L128.667523,48.0655738 C129.771221,47.9740773 130.849649,47.6872476 131.85207,47.2185792 C133.121783,46.6457209 134.178256,45.6898592 134.871899,44.4863388 C135.617256,43.2988249 136.007652,41.9247223 135.997472,40.5245902 C136.023643,39.4983956 135.846398,38.4771245 135.475865,37.5191257 Z" id="Path" fill="#FFFFFF"></path>
            </g>
        </g>
    </g>
</svg>